<?xml version="1.0" encoding="UTF-8"?>
<svg xmlns="http://www.w3.org/2000/svg" width="929" height="268" viewBox="0 0 929 268" role="img" aria-label="TontID logo">
  <title>TontID logo</title>
  <desc>Minimal outlined vector wordmark. Tont in dark navy and ID in cyan.</desc>
  <path d="M 60.000 86.250 L 109.688 86.250 L 109.688 219.600 L 158.438 219.600 L 158.438 86.250 L 208.125 86.250 L 208.125 45.000 L 60.000 45.000 L 60.000 86.250 Z M 285.712 222.412 C 326.025 222.412 353.212 197.325 353.212 157.725 C 353.212 118.237 326.025 93.037 285.712 93.037 C 245.512 93.037 218.213 118.237 218.213 157.725 C 218.213 197.438 245.512 222.412 285.712 222.412 Z M 285.712 185.850 C 274.575 185.850 265.538 176.363 265.538 157.725 C 265.538 139.087 274.575 129.600 285.712 129.600 C 296.850 129.600 305.850 139.087 305.850 157.725 C 305.850 176.363 296.850 185.850 285.712 185.850 Z M 415.556 153.975 C 415.556 139.688 421.744 132.637 432.769 132.637 C 443.794 132.637 450.019 139.688 450.019 152.100 L 450.019 219.600 L 496.894 219.600 L 496.894 141.562 C 496.894 111.787 482.681 93.037 455.156 93.037 C 435.694 93.037 423.169 102.300 414.956 116.475 L 414.956 95.850 L 368.681 95.850 L 368.681 219.600 L 415.556 219.600 L 415.556 153.975 Z M 602.578 95.850 L 577.041 95.850 L 577.041 62.100 L 530.166 62.100 L 530.166 95.850 L 509.316 95.850 L 509.316 131.475 L 530.166 131.475 L 530.166 182.550 C 530.166 208.350 544.341 219.600 576.816 219.600 L 602.578 219.600 L 602.578 183.975 L 587.803 183.975 C 579.253 183.975 577.041 181.762 577.041 174.375 L 577.041 131.475 L 602.578 131.475 L 602.578 95.850 Z" fill="#152438" fill-rule="nonzero"/>
  <path d="M 692.703 45.000 L 643.953 45.000 L 643.953 219.600 L 692.703 219.600 L 692.703 45.000 Z M 779.666 219.600 C 833.441 219.600 868.016 185.363 868.016 132.412 C 868.016 79.312 832.878 45.000 778.953 45.000 L 711.453 45.000 L 711.453 219.600 L 779.666 219.600 Z M 760.203 179.287 L 760.203 85.312 L 775.916 85.312 C 805.316 85.312 818.816 100.425 818.816 132.412 C 818.816 164.175 805.803 179.287 777.303 179.287 L 760.203 179.287 Z" fill="#20C7CC" fill-rule="nonzero"/>
</svg>
