<svg width="1400" height="420" viewBox="0 0 1400 420" fill="none" xmlns="http://www.w3.org/2000/svg">
  <defs>
    <linearGradient id="accent" x1="116" y1="68" x2="448" y2="356" gradientUnits="userSpaceOnUse">
      <stop stop-color="#ADC6FF"/>
      <stop offset="1" stop-color="#86D7C4"/>
    </linearGradient>
  </defs>
  <rect width="1400" height="420" rx="52" fill="#0E1118"/>
  <rect x="20" y="20" width="1360" height="380" rx="40" stroke="white" stroke-opacity="0.08" stroke-width="2"/>
  <rect x="88" y="82" width="256" height="256" rx="64" fill="#111622"/>
  <rect x="88" y="82" width="256" height="256" rx="64" stroke="url(#accent)" stroke-opacity="0.24" stroke-width="2"/>
  <path d="M146 156H286" stroke="url(#accent)" stroke-width="16" stroke-linecap="round"/>
  <path d="M180 156V270" stroke="#F5F7FF" stroke-width="18" stroke-linecap="round"/>
  <path d="M216 156V270" stroke="#F5F7FF" stroke-width="18" stroke-linecap="round"/>
  <path d="M246 156H254C290.451 156 320 185.549 320 222V230C320 266.451 290.451 296 254 296H246V156Z" stroke="url(#accent)" stroke-width="16" stroke-linejoin="round"/>
  <circle cx="146" cy="156" r="10" fill="#ADC6FF"/>
  <circle cx="286" cy="156" r="10" fill="#86D7C4"/>
  <text x="420" y="214" fill="#F5F7FF" font-family="Segoe UI, Roboto Flex, Arial, sans-serif" font-size="128" font-weight="600" letter-spacing="0">Tond</text>
  <rect x="876" y="104" width="184" height="122" rx="32" fill="url(#accent)" fill-opacity="0.14" stroke="url(#accent)" stroke-width="2"/>
  <text x="919" y="190" fill="#DCE7FF" font-family="Segoe UI, Roboto Flex, Arial, sans-serif" font-size="82" font-weight="700" letter-spacing="2">ID</text>
  <text x="424" y="274" fill="#9EABC5" font-family="Segoe UI, Roboto Flex, Arial, sans-serif" font-size="32" font-weight="500" letter-spacing="0">Clean Remote ID tooling for constrained surfaces and premium control UIs</text>
</svg>
